<?xml version="1.0" encoding="utf-8"?>
<!-- Generator: Adobe Illustrator 16.0.0, SVG Export Plug-In . SVG Version: 6.00 Build 0)  -->
<!DOCTYPE svg PUBLIC "-//W3C//DTD SVG 1.1//EN" "http://www.w3.org/Graphics/SVG/1.1/DTD/svg11.dtd">
<svg version="1.1" id="Layer_1" xmlns="http://www.w3.org/2000/svg" xmlns:xlink="http://www.w3.org/1999/xlink" x="0px" y="0px"
	 width="841.891px" height="595.279px" viewBox="0 0 841.891 595.279" enable-background="new 0 0 841.891 595.279"
	 xml:space="preserve">
<g>
	
		<linearGradient id="SVGID_1_" gradientUnits="userSpaceOnUse" x1="-167.2107" y1="-108.1707" x2="-167.2107" y2="170.0226" gradientTransform="matrix(1 0 0 1 588.9453 228.3594)">
		<stop  offset="0.0121" style="stop-color:#1DB0E6"/>
		<stop  offset="1" style="stop-color:#3978BD"/>
	</linearGradient>
	<path fill="url(#SVGID_1_)" d="M668.197,136.851c-1.028,0-2.042,0.129-3.056,0.146C652.108,94.01,612.2,62.696,564.956,62.696
		c-6.476,0-12.802,0.665-18.96,1.799C514.983,27.719,468.634,4.298,416.771,4.298c-53.894,0-101.793,25.313-132.736,64.613
		c-16.812-5.116-34.613-7.906-53.083-7.906c-100.605,0-182.165,81.555-182.165,182.17c0,92.02,68.27,167.882,156.88,180.213
		c7.855,5.616,16.166,10.558,24.89,14.865l37.187,85.103l0.735,69.438l55.605-101.425l7.594-35.43
		c37.545-4.253,71.566-19.998,98.595-43.57c23.94-1.208,45.585-10.988,61.933-26.418c8.943,4.625,19.096,7.277,29.863,7.277
		c10.042,0,19.547-2.336,28.061-6.419c14.578,10.682,32.488,17.077,51.934,17.077c18.369,0,35.398-5.641,49.494-15.275
		c5.459,0.723,10.975,1.231,16.639,1.231c69.854,0,126.484-56.644,126.484-126.504C794.681,193.482,738.052,136.851,668.197,136.851
		z"/>
	<path fill="#FFFFFF" d="M761.018,258.735c-0.756,0-1.492,0.106-2.202,0.224l-26.855-56.107c3.003-2.438,5.03-5.986,5.03-10.145
		c0-7.304-5.943-13.236-13.242-13.236c-2.72,0-5.085,1.02-7.185,2.412l-97.826-64.067c1.058-1.91,1.826-3.975,1.826-6.328
		c0-7.313-5.932-13.236-13.242-13.236c-5.175,0-9.578,3.068-11.752,7.41l-140.27-66.959c0.394-1.257,0.783-2.525,0.783-3.924
		c0-7.319-5.917-13.236-13.235-13.236c-7.334,0-13.235,5.917-13.235,13.236c0,1.36,0.388,2.594,0.771,3.828L292.404,83.846
		c-2.401-3.44-6.166-5.82-10.683-5.82c-7.174,0-12.927,5.719-13.169,12.836l-129.594,33.938c-1.802-5.17-6.591-8.933-12.371-8.933
		c-7.314,0-13.253,5.934-13.253,13.249c0,4.597,2.5,8.444,6.04,10.822l-50.362,92.569c-7.873,0.236-14.179,6.649-14.179,14.579
		c0,5.728,3.328,10.654,8.139,13.054l-0.243,1.394c0.243,0,0.426-0.12,0.669-0.12l34.666,80.293c-2.5,2.393-4.089,5.755-4.089,9.486
		c0,7.333,5.934,13.241,13.235,13.241c3.15,0,5.887-1.227,8.162-3.045l85.885,35.655c-0.271,1.072-0.663,2.118-0.663,3.27
		c0,7.332,5.914,13.241,13.235,13.241c2.362,0,4.467-0.79,6.374-1.861l40.484,53.532c-3.23,2.424-5.438,6.077-5.438,10.422
		c0,7.32,5.913,13.243,13.243,13.243c0.236,0,0.415-0.126,0.661-0.137l12.228,58.594l29.768-94.902c0.076,0,0.147,0.022,0.219,0.022
		c7.227,0,13.09-5.876,13.09-13.105c0-0.227-0.058-0.42-0.071-0.655l42.701-18.565c1.899,0.801,3.966,1.251,6.166,1.251
		c8.042,0,14.62-6.002,15.686-13.761l33.673-19.085c3.914,3.103,8.785,5.029,14.157,5.029c9.698,0,17.935-6.056,21.282-14.549
		l86.872-3.588c2.352,3.609,6.237,6.138,10.871,6.138c3.472,0,6.569-1.401,8.938-3.577l26.105,9.304
		c1.256,6.002,6.331,10.605,12.697,10.605c6.554,0,11.715-4.817,12.8-11.056l30.306-16.298c2.097,1.376,4.456,2.369,7.149,2.369
		c6.983,0,12.55-5.448,13.049-12.318l39.305-5.289c1.917,3.847,5.561,6.689,9.97,7.299c1.567,0.474,3.202,0.791,4.916,0.791
		c9.645,0,17.452-7.806,17.452-17.45c0-3.056-0.858-5.898-2.257-8.415l21.035-49.444c0.43,0.304,1.218-0.333,2.199-1.541
		c0.522,0.057,1.027,0.158,1.566,0.158c7.718,0,13.989-6.272,13.989-13.996C775.001,264.993,768.728,258.735,761.018,258.735z
		 M478.602,324.636l-26.301,29.302c-4.096-3.778-9.517-6.146-15.53-6.146c-2.449,0-4.762,0.485-6.967,1.184l-21.954-85.718
		c12.542-2.759,22.614-12.088,26.394-24.197l50.609,5.831c1.743,3.341,4.813,5.681,8.558,6.595l-5.23,51.512
		c-7.13,0.216-12.857,5.989-12.857,13.153C475.321,319.422,476.631,322.323,478.602,324.636z M373.255,389.591
		c-2.104,0-4.101,0.417-5.942,1.161l-23.461-45.917c0.509-0.601,0.89-1.286,1.307-1.963l68.837,28.907
		c0.26,5.583,2.493,10.614,6.057,14.438l-31.064,17.527C388.098,395.794,381.432,389.591,373.255,389.591z M357.35,405.484
		c0,0.878,0.125,1.705,0.255,2.539l-130.816-9.128c-0.142-1.071-0.271-2.143-0.652-3.11l97.236-51.909
		c2.408,3.33,6.116,5.643,10.551,5.643c2.741,0,5.142-1.014,7.249-2.458l22.925,45.466C360.031,395.4,357.35,400.124,357.35,405.484
		z M199.732,306.116L77.963,258.975c2.407-1.731,4.241-4.184,5.246-7.034l123.861-5.177c1.972,4.754,6.625,8.064,12.07,8.143v33.917
		C209.621,289.999,201.935,296.935,199.732,306.116z M468.733,175.778l-39.985,31.38c-6.493-8.714-16.861-14.371-28.559-14.371
		c-1.136,0-2.253,0.062-3.352,0.163l-4.642-56.616c3.393-2.138,6.136-5.138,8.03-8.69l65.791,35.45
		c-0.383,1.229-0.776,2.5-0.776,3.851C465.232,170.372,466.62,173.441,468.733,175.778z M554.223,219.492l-44.794,18.059
		c-0.68-6.667-6.134-11.94-12.995-11.94c-0.662,0-1.257,0.288-1.925,0.389l-10.232-47.284c2.179-1.077,3.925-2.786,5.212-4.845
		l61.438,29.485c-0.204,1.229-0.382,2.469-0.382,3.749C550.544,211.687,551.92,215.915,554.223,219.492z M491.136,226.763
		c-4.647,2.053-7.933,6.682-7.933,12.084c0,0.863,0.327,1.615,0.483,2.436l-48.577-5.605c0.481-2.339,0.738-4.758,0.738-7.242
		c0-6.739-1.911-13.017-5.173-18.399l40.875-32.067c2.05,1.286,4.334,2.229,6.923,2.229c0.874,0,1.632-0.323,2.465-0.497
		L491.136,226.763z M414.142,368.104l-67.655-28.422c0.3-1.095,0.678-2.198,0.678-3.408c0-3.969-1.85-7.433-4.647-9.87
		l43.238-65.358c4.413,1.951,9.29,3.057,14.421,3.057c1.446,0,2.854-0.106,4.252-0.278l22.119,86.471
		C419.816,353.688,415.032,360.264,414.142,368.104z M380.062,139.871c3.117,0,6.085-0.63,8.779-1.765l4.548,55.336
		c-14.021,2.714-25.11,13.603-28.077,27.528l-117.786-37.04c1.688-3.729,2.65-7.841,2.65-12.195c0-0.856-0.061-1.709-0.128-2.542
		l111.871-38.384C366.104,136.286,372.635,139.871,380.062,139.871z M218.573,201.199l-0.647,27.509
		c-6.631,0.721-11.879,6.143-11.879,12.983c0,0.586,0.258,1.083,0.333,1.649l-122.424,5.109c0.045-0.453,0.138-0.882,0.138-1.343
		c0-1.551-0.306-3.011-0.749-4.422l114.109-52.617C202.47,196.403,210.014,200.611,218.573,201.199z M222.594,288.605v-34.352
		c3.553-0.941,6.453-3.19,8.174-6.338l81.398,11.63c0.116,1.815,0.573,3.489,1.33,5.025l-69.52,40.925
		C241.396,295.953,232.885,288.898,222.594,288.605z M312.515,256.106l-80.574-11.517c0.229-0.958,0.596-1.871,0.596-2.898
		c0-6.578-4.877-11.786-11.158-12.825l0.654-27.634c10.117-0.485,18.89-6.035,23.844-14.188l118.875,37.386
		c-0.146,1.319-0.238,2.651-0.238,4.008c0,4.637,0.915,9.052,2.527,13.113l-29.867,11.612c-2.116-4.513-6.62-7.677-11.937-7.677
		C318.85,245.485,313.761,250.086,312.515,256.106z M338.469,258.72c0-0.782-0.309-1.442-0.428-2.187l30.43-11.83
		c3.19,6.202,8.132,11.343,14.187,14.775l-42.996,64.999c-1.68-0.824-3.507-1.353-5.481-1.389l-5.895-51.751
		C334.093,269.923,338.469,264.948,338.469,258.72z M496.821,252.017c6.236-0.186,11.168-4.698,12.371-10.644l47.256-19.052
		c4.199,4.693,10.213,7.687,16.997,7.687c3.592,0,6.955-0.896,9.988-2.38l24.654,34.063c-4.375,5.153-7.013,11.811-7.013,19.084
		c0,2.911,0.439,5.72,1.229,8.376l-101.4,22.477c-1.523-4.104-4.996-7.064-9.305-8.11L496.821,252.017z M630.636,251.221
		c-7.801,0-14.854,3.032-20.147,7.973l-24.034-33.25c2.043-1.416,3.789-3.192,5.278-5.171l155.646,55.046
		c0.338,1.479,0.924,2.856,1.69,4.106l-88.955,2.731c0.038-0.619,0.097-1.241,0.097-1.873
		C660.198,264.462,646.969,251.221,630.636,251.221z M723.749,205.963c1.896,0,3.688-0.418,5.324-1.145l26.359,55.089
		c-4.724,2.058-8.075,6.689-8.349,12.13l-153.466-54.282c1.042-1.957,1.851-4.032,2.283-6.289l114.754-17.985
		C711.056,200.421,716.688,205.963,723.749,205.963z M607.975,124.612c3.463-0.177,6.563-1.583,8.821-3.933l97.13,63.353
		c-1.468,1.635-2.382,3.655-2.854,5.881L596.245,207.91c0.025-0.272,0.097-0.52,0.097-0.791c0-8.002-4.116-15.023-10.333-19.12
		L607.975,124.612z M598.259,121.066c1.691,1.596,3.819,2.549,6.164,3.078l-21.488,62.189c-2.885-1.327-6.096-2.11-9.496-2.11
		c-10.127,0-18.632,6.621-21.64,15.733l-60.846-29.212c0.361-1.225,0.775-2.448,0.775-3.797c0-0.49-0.234-0.907-0.296-1.402
		L598.259,121.066z M453.766,41.834l140.807,67.168c-0.165,0.846-0.492,1.613-0.492,2.498c0,2.52,0.88,4.73,2.106,6.721
		l-105.464,43.844c-1.952-4.885-6.697-8.346-12.25-8.346c-0.165,0-0.293,0.096-0.46,0.106l-29.512-107.17
		C450.723,45.578,452.453,43.875,453.766,41.834z M442.844,48.026c0.818,0,1.54-0.317,2.306-0.462l29.467,106.926
		c-3.009,0.94-5.433,2.875-7.1,5.46l-65.906-35.491c0.82-2.354,1.367-4.845,1.367-7.48c0-3.993-1.118-7.693-2.917-10.952
		l38.512-58.843C439.94,47.638,441.324,48.026,442.844,48.026z M431.874,41.766c0.97,1.51,2.177,2.768,3.641,3.754l-37.521,57.368
		c-4.186-5.335-10.617-8.811-17.926-8.811c-9.961,0-18.336,6.378-21.493,15.249l-63.627-17.854c0-0.067,0.015-0.125,0.015-0.178
		c0-1.541-0.379-2.967-0.871-4.344L431.874,41.766z M274.498,102.088c2.106,1.414,4.499,2.436,7.22,2.436
		c6.028,0,10.927-4.124,12.531-9.646l63.353,17.765c-0.271,1.404-0.429,2.838-0.429,4.332c0,3.936,1.083,7.584,2.832,10.826
		L249.561,165.69c-1.217-5.854-4.168-11.055-8.285-15.08L274.498,102.088z M139.835,129.13c0-0.323-0.16-0.595-0.195-0.921
		l129.452-33.881c0.496,2.087,1.373,3.963,2.736,5.538l-33.184,48.484c-4.998-3.849-11.232-6.169-18.033-6.169
		c-12.643,0-23.406,7.958-27.635,19.134l-54.118-27.42C139.449,132.4,139.835,130.816,139.835,129.13z M122.452,141.537
		c1.325,0.438,2.662,0.833,4.131,0.833c4.373,0,8.075-2.273,10.491-5.533l54.861,27.808c-0.563,2.279-0.885,4.643-0.885,7.09
		c0,5.667,1.624,10.947,4.39,15.443L81.914,239.524c-2.016-3.317-5.287-5.751-9.167-6.65L122.452,141.537z M107.205,337.976
		c-2.291,0-4.353,0.735-6.233,1.771l-33.772-78.242c0.738,0.119,1.488,0.227,2.258,0.227c1.487,0,2.899-0.284,4.25-0.698
		l125.516,48.59c-0.052,0.611-0.184,1.195-0.184,1.83c0,3.436,0.821,6.685,2.191,9.605l-81.233,27.893
		C118.883,342.76,113.728,337.976,107.205,337.976z M213.01,387.243c-4.543,0.294-8.324,2.866-10.484,6.6l-84.669-35.144
		c1.248-1.809,2.09-3.848,2.323-6.139l82.726-28.401c3.183,4.737,8.102,8.199,13.838,9.531L213.01,387.243z M216.45,387.605
		l3.739-53.452c0.581,0.046,1.149,0.18,1.758,0.18c12.646,0,22.9-10.241,22.9-22.881c0-0.808-0.156-1.563-0.228-2.325l70.799-41.687
		c2.359,2.638,5.671,4.342,9.454,4.45l5.885,51.809c-5.738,1.442-10.069,6.395-10.069,12.586c0,1.647,0.398,3.169,0.931,4.612
		l-97.205,51.909C222.517,390.133,219.761,388.307,216.45,387.605z M282.454,531.38l-9.893-43.313
		c5.268-1.748,9.155-6.542,9.155-12.416c0-3.869-1.716-7.263-4.361-9.7l24.883-17.213c1.515,1.488,3.397,2.549,5.476,3.147
		L282.454,531.38z M323.658,435.047c-1.795-5.075-6.593-8.739-12.291-8.739c-7.225,0-13.084,5.852-13.084,13.07
		c0,2.088,0.53,4.027,1.39,5.776c-0.136,0.326-0.193,0.608-0.037,0.777l-25.761,17.687c-1.663-0.756-3.456-1.208-5.384-1.208
		c-1.802,0-3.5,0.374-5.065,1.017l-40.365-53.655c1.979-1.917,3.138-4.546,3.596-7.399l131.9,9.171
		c1.107,2.687,2.944,4.953,5.235,6.655L323.658,435.047z M542.557,368.342c0,1.331,0.39,2.538,0.753,3.72l-84.15,3.409
		c0.34-1.557,0.512-3.135,0.512-4.771c0-5.394-1.932-10.265-5.033-14.179l26.616-29.619c2.133,1.445,4.549,2.492,7.31,2.492
		c3.777,0,7.163-1.613,9.551-4.164l47.793,34.561C543.893,362.105,542.557,365.038,542.557,368.342z M555.797,355.112
		c-2.705,0-5.048,0.992-7.149,2.37l-48.571-35.159c1.005-1.861,1.718-3.891,1.718-6.172c0-0.382-0.174-0.731-0.22-1.092
		l101.888-22.609c1.714,3.95,4.266,7.446,7.41,10.271l-45.985,56.101C562.51,356.532,559.338,355.112,555.797,355.112z
		 M640.53,359.69c0,3.351,1.362,6.294,3.385,8.606l-27.524,14.471c-0.956-6.361-6.212-11.336-12.864-11.336
		c-6.863,0-12.296,5.278-12.971,11.956l-23.68-8.225c1.24-2.006,2.155-4.272,2.155-6.821c0-2.473-0.859-4.647-2.047-6.636
		l46.567-56.827c4.823,3.436,10.705,5.461,17.073,5.461c1.964,0,3.867-0.192,5.719-0.564l16.524,36.862
		C646.011,347.114,640.53,352.698,640.53,359.69z M666.497,357.152c-1.005-5.007-4.688-8.864-9.635-10.083l-17.134-38.166
		c3.855-1.239,7.355-3.252,10.331-5.876l54.551,37.23c-0.619,1.806-1.042,3.699-1.042,5.706c0,2.145,0.443,4.163,1.141,6.067
		L666.497,357.152z M754.598,285.474l-20.721,48.781c-3.204-3.496-7.748-5.741-12.857-5.741c-6.364,0-11.876,3.451-14.923,8.551
		l-53.523-36.51c3.6-3.992,6.12-8.949,7.11-14.438l92.239-2.818c0.699,0.596,1.457,1.128,2.268,1.574
		C754.338,285.07,754.441,285.283,754.598,285.474z"/>
</g>
</svg>
