<?xml version="1.0" encoding="utf-8"?>
<!-- Generator: Adobe Illustrator 16.0.0, SVG Export Plug-In . SVG Version: 6.00 Build 0)  -->
<!DOCTYPE svg PUBLIC "-//W3C//DTD SVG 1.1//EN" "http://www.w3.org/Graphics/SVG/1.1/DTD/svg11.dtd">
<svg version="1.1" id="Layer_1" xmlns="http://www.w3.org/2000/svg" xmlns:xlink="http://www.w3.org/1999/xlink" x="0px" y="0px"
	 width="841.89px" height="595.28px" viewBox="0 0 841.89 595.28" enable-background="new 0 0 841.89 595.28" xml:space="preserve">
<g>
	<path fill="#010101" d="M21.182,396v89.081H1.094V396H21.182z"/>
	<path fill="#010101" d="M52.104,485.081V396H75.63l18.503,32.645c5.286,9.383,10.441,20.484,14.54,30.529h0.265
		c-1.191-11.762-1.586-23.785-1.586-37.271V396h18.503v89.081H104.71l-19.03-34.363c-5.287-9.514-11.235-21.009-15.464-31.449
		h-0.527c0.661,11.893,0.926,24.452,0.926,38.983v26.836H52.104V485.081z"/>
	<path fill="#010101" d="M174.082,412.917h-24.054V396h68.461v16.917h-24.319v72.164h-20.088V412.917z"/>
	<path fill="#010101" d="M295.67,447.412h-32.776v21.144h36.61v16.525h-56.698V396h54.853v16.519h-34.761v18.505h32.776v16.389
		H295.67z"/>
	<path fill="#010101" d="M326.853,396h20.086v72.164h35.42v16.917h-55.506V396z"/>
	<path fill="#010101" d="M407.866,396h20.089v72.164h35.423v16.917h-55.512V396z"/>
	<path fill="#010101" d="M508.962,396v89.081h-20.091V396H508.962z"/>
	<path fill="#010101" d="M614.295,480.984c-6.208,2.11-17.976,5.019-29.737,5.019c-16.257,0-28.021-4.097-36.216-11.892
		c-8.062-7.796-12.551-19.427-12.551-32.515c0.13-29.607,21.675-46.524,50.883-46.524c11.502,0,20.354,2.248,24.714,4.234
		l-4.228,16.257c-4.888-2.248-10.841-3.836-20.616-3.836c-16.794,0-29.611,9.383-29.611,28.811
		c0,18.504,11.636,29.208,28.155,29.208c4.495,0,8.194-0.522,9.78-1.19V449.79H581.12v-15.728h33.175V480.984z"/>
	<path fill="#010101" d="M663.72,396v89.081h-20.092V396H663.72z"/>
	<path fill="#010101" d="M695.299,464.329c5.288,2.776,13.749,5.554,22.341,5.554c9.254,0,14.142-3.836,14.142-9.65
		c0-5.548-4.229-8.724-14.931-12.422c-14.807-5.287-24.589-13.48-24.589-26.432c0-15.205,12.82-26.698,33.703-26.698
		c10.176,0,17.448,1.985,22.733,4.495l-4.496,16.119c-3.436-1.717-9.913-4.228-18.505-4.228c-8.717,0-12.951,4.098-12.951,8.594
		c0,5.678,4.894,8.194,16.525,12.552c15.728,5.814,22.994,14.009,22.994,26.568c0,14.931-11.37,27.619-35.813,27.619
		c-10.183,0-20.225-2.775-25.249-5.547L695.299,464.329z"/>
	<path fill="#010101" d="M796.797,412.917h-24.046V396h68.46v16.917H816.89v72.164h-20.093V412.917z"/>
</g>
<g>
	<path fill="#010101" d="M213.868,569.236c-1.488,0.765-4.61,1.534-8.552,1.534c-9.128,0-15.947-5.762-15.947-16.426
		c0-10.188,6.868-17.008,16.907-17.008c3.986,0,6.582,0.868,7.687,1.443l-1.057,3.417c-1.537-0.771-3.795-1.346-6.485-1.346
		c-7.59,0-12.633,4.855-12.633,13.354c0,7.973,4.564,13.019,12.395,13.019c2.593,0,5.19-0.53,6.87-1.348L213.868,569.236z"/>
	<path fill="#010101" d="M251.625,553.717c0,11.103-6.771,17.063-15.035,17.063c-8.597,0-14.557-6.678-14.557-16.479
		c0-10.278,6.339-17.009,14.986-17.009C245.911,537.291,251.625,544.066,251.625,553.717z M226.454,554.2
		c0,6.967,3.747,13.161,10.377,13.161c6.631,0,10.375-6.098,10.375-13.448c0-6.488-3.363-13.212-10.33-13.212
		C229.914,540.701,226.454,547.138,226.454,554.2z"/>
	<path fill="#010101" d="M289.145,556.024c-0.24-4.516-0.528-9.991-0.528-13.979h-0.098c-1.151,3.746-2.449,7.83-4.08,12.299
		l-5.718,15.709h-3.169l-5.286-15.422c-1.536-4.613-2.787-8.742-3.696-12.586h-0.098c-0.096,4.032-0.337,9.417-0.625,14.318
		l-0.866,13.879h-3.984l2.258-32.378h5.332l5.524,15.663c1.345,3.979,2.402,7.54,3.268,10.905h0.098
		c0.862-3.267,2.018-6.82,3.46-10.905l5.763-15.663h5.334l2.016,32.378h-4.131L289.145,556.024z"/>
	<path fill="#010101" d="M305.291,538.25c2.019-0.332,4.661-0.62,8.022-0.62c4.132,0,7.158,0.961,9.081,2.687
		c1.729,1.534,2.833,3.895,2.833,6.774c0,2.928-0.864,5.233-2.5,6.913c-2.256,2.36-5.809,3.555-9.896,3.555
		c-1.251,0-2.401-0.045-3.362-0.286v12.971h-4.179V538.25L305.291,538.25z M309.47,553.861c0.913,0.242,2.068,0.345,3.459,0.345
		c5.046,0,8.119-2.494,8.119-6.872c0-4.326-3.073-6.385-7.636-6.385c-1.829,0-3.219,0.145-3.942,0.334V553.861z"/>
	<path fill="#010101" d="M340.888,560.062l-3.361,10.182h-4.322l11.048-32.378h4.996l11.046,32.378h-4.467l-3.458-10.182H340.888z
		 M351.551,556.796l-3.219-9.313c-0.72-2.123-1.201-4.037-1.679-5.919h-0.097c-0.481,1.882-0.96,3.895-1.632,5.861l-3.172,9.371
		H351.551L351.551,556.796z"/>
	<path fill="#010101" d="M369.853,570.243v-32.378h4.613l10.332,16.381c2.352,3.798,4.273,7.207,5.763,10.521l0.144-0.045
		c-0.383-4.326-0.483-8.267-0.483-13.311v-13.546h3.939v32.378h-4.228l-10.278-16.429c-2.253-3.601-4.417-7.297-6.004-10.807
		l-0.145,0.046c0.242,4.084,0.287,7.978,0.287,13.355v13.834H369.853L369.853,570.243z"/>
	<path fill="#010101" d="M413.476,570.243v-13.736l-10.285-18.636h4.81l4.56,8.939c1.203,2.445,2.209,4.41,3.223,6.678h0.09
		c0.869-2.123,2.02-4.232,3.268-6.678l4.661-8.939h4.712l-10.805,18.591v13.787h-4.233V570.243z"/>
	<path fill="#010101" d="M452.002,537.865h4.228v28.875h13.836v3.503h-18.057v-32.378H452.002z"/>
	<path fill="#010101" d="M483.713,537.865v32.378h-4.229v-32.378H483.713z"/>
	<path fill="#010101" d="M523.101,556.024c-0.241-4.516-0.528-9.991-0.528-13.979h-0.097c-1.151,3.746-2.445,7.83-4.086,12.299
		l-5.717,15.709h-3.167l-5.285-15.422c-1.536-4.613-2.784-8.742-3.695-12.586h-0.095c-0.095,4.032-0.336,9.417-0.625,14.318
		l-0.868,13.879h-3.986l2.262-32.378h5.331l5.522,15.663c1.343,3.979,2.404,7.54,3.27,10.905h0.096
		c0.865-3.267,2.015-6.82,3.455-10.905l5.768-15.663h5.331l2.023,32.378h-4.134L523.101,556.024z"/>
	<path fill="#010101" d="M543.422,537.865v32.378h-4.227v-32.378H543.422z"/>
	<path fill="#010101" d="M561.68,541.42h-9.847v-3.555h23.969v3.555h-9.894v28.823h-4.229V541.42z"/>
	<path fill="#010101" d="M600.926,555.063h-12.533v11.678h14.022v3.503h-18.249v-32.378h17.531v3.509h-13.312v10.233h12.54V555.063
		L600.926,555.063z"/>
	<path fill="#010101" d="M612.647,538.35c2.549-0.432,5.575-0.72,8.895-0.72c5.997,0,10.278,1.438,13.106,4.031
		c2.934,2.641,4.613,6.391,4.613,11.625c0,5.285-1.68,9.605-4.658,12.585c-3.071,3.024-8.07,4.665-14.361,4.665
		c-3.026,0-5.483-0.144-7.595-0.378V538.35L612.647,538.35z M616.83,566.975c1.059,0.146,2.595,0.202,4.227,0.202
		c8.985,0,13.788-4.998,13.788-13.74c0.054-7.64-4.272-12.487-13.113-12.487c-2.163,0-3.798,0.19-4.901,0.432V566.975z"/>
</g>
<g>
	
		<linearGradient id="SVGID_1_" gradientUnits="userSpaceOnUse" x1="-147.2817" y1="743.6396" x2="-147.2817" y2="582.4769" gradientTransform="matrix(1 0 0 -1 564 832)">
		<stop  offset="0.0121" style="stop-color:#1DB0E6"/>
		<stop  offset="1" style="stop-color:#3978BD"/>
	</linearGradient>
	<path fill="url(#SVGID_1_)" d="M559.498,98.012c-0.595,0-1.183,0.075-1.771,0.085c-7.55-24.903-30.669-43.044-58.039-43.044
		c-3.751,0-7.416,0.385-10.984,1.042c-17.966-21.305-44.817-34.873-74.862-34.873c-31.221,0-58.97,14.664-76.896,37.432
		c-9.739-2.964-20.052-4.58-30.752-4.58c-58.282,0-105.531,47.246-105.531,105.534c0,53.308,39.55,97.257,90.884,104.4
		c4.55,3.254,9.365,6.116,14.419,8.612l21.543,49.301l0.425,40.228l32.213-58.758l4.4-20.525
		c21.751-2.463,41.459-11.585,57.118-25.242c13.869-0.699,26.408-6.365,35.878-15.303c5.181,2.679,11.063,4.215,17.301,4.215
		c5.818,0,11.324-1.353,16.255-3.718c8.446,6.188,18.821,9.893,30.086,9.893c10.643,0,20.508-3.267,28.673-8.848
		c3.163,0.418,6.358,0.712,9.64,0.712c40.468,0,73.275-32.814,73.275-73.286C632.773,130.82,599.966,98.012,559.498,98.012z"/>
	<path fill="#FFFFFF" d="M613.27,168.621c-0.438,0-0.863,0.062-1.275,0.13l-15.558-32.504c1.739-1.412,2.915-3.467,2.915-5.877
		c0-4.231-3.444-7.668-7.672-7.668c-1.575,0-2.946,0.591-4.162,1.398l-56.673-37.115c0.613-1.107,1.059-2.303,1.059-3.666
		c0-4.237-3.438-7.668-7.673-7.668c-2.997,0-5.548,1.777-6.808,4.293l-81.261-38.791c0.229-0.729,0.455-1.463,0.455-2.274
		c0-4.24-3.428-7.668-7.668-7.668c-4.248,0-7.667,3.428-7.667,7.668c0,0.788,0.224,1.503,0.446,2.218l-79.934,26.209
		c-1.391-1.993-3.572-3.372-6.189-3.372c-4.156,0-7.489,3.313-7.629,7.436L252.9,91.032c-1.044-2.996-3.818-5.175-7.167-5.175
		c-4.237,0-7.678,3.437-7.678,7.675c0,2.663,1.449,4.891,3.499,6.269l-29.175,53.627c-4.561,0.137-8.214,3.852-8.214,8.445
		c0,3.319,1.928,6.172,4.715,7.563l-0.141,0.807c0.141,0,0.247-0.069,0.388-0.069l20.083,46.516
		c-1.449,1.385-2.369,3.333-2.369,5.495c0,4.248,3.437,7.671,7.667,7.671c1.825,0,3.41-0.711,4.728-1.764l49.755,20.655
		c-0.157,0.621-0.384,1.228-0.384,1.895c0,4.247,3.426,7.671,7.667,7.671c1.368,0,2.588-0.458,3.693-1.079l23.453,31.012
		c-1.871,1.405-3.151,3.521-3.151,6.038c0,4.241,3.426,7.672,7.672,7.672c0.137,0,0.24-0.073,0.383-0.079l7.084,33.945
		l17.245-54.979c0.044,0,0.085,0.013,0.127,0.013c4.187,0,7.583-3.405,7.583-7.593c0-0.131-0.033-0.243-0.041-0.379l24.737-10.756
		c1.101,0.464,2.298,0.725,3.573,0.725c4.659,0,8.469-3.477,9.086-7.972l19.508-11.056c2.268,1.797,5.089,2.914,8.201,2.914
		c5.618,0,10.39-3.508,12.329-8.429l50.326-2.078c1.363,2.091,3.615,3.555,6.299,3.555c2.011,0,3.805-0.811,5.177-2.072l15.123,5.39
		c0.729,3.477,3.669,6.143,7.357,6.143c3.796,0,6.787-2.79,7.416-6.404l17.555-9.441c1.215,0.797,2.581,1.372,4.143,1.372
		c4.045,0,7.269-3.157,7.558-7.136l22.771-3.064c1.11,2.228,3.221,3.875,5.775,4.228c0.909,0.274,1.856,0.458,2.849,0.458
		c5.587,0,10.109-4.522,10.109-10.109c0-1.771-0.497-3.417-1.306-4.875l12.185-28.644c0.249,0.176,0.705-0.193,1.274-0.892
		c0.302,0.033,0.595,0.091,0.908,0.091c4.471,0,8.104-3.633,8.104-8.108C621.371,172.247,617.738,168.621,613.27,168.621z
		 M449.662,206.799l-15.237,16.976c-2.372-2.189-5.512-3.561-8.997-3.561c-1.419,0-2.758,0.281-4.036,0.686l-12.718-49.659
		c7.266-1.598,13.101-7.002,15.29-14.017l29.32,3.378c1.009,1.935,2.789,3.291,4.958,3.82l-3.031,29.842
		c-4.13,0.125-7.449,3.47-7.449,7.62C447.761,203.78,448.52,205.459,449.662,206.799z M388.633,244.429
		c-1.219,0-2.376,0.242-3.443,0.673l-13.592-26.601c0.295-0.347,0.516-0.745,0.757-1.137l39.879,16.747
		c0.15,3.234,1.444,6.149,3.509,8.364l-17.996,10.154C397.231,248.023,393.37,244.429,388.633,244.429z M379.419,253.636
		c0,0.509,0.072,0.987,0.147,1.471l-75.784-5.287c-0.082-0.621-0.157-1.242-0.378-1.803l56.331-30.071
		c1.395,1.928,3.543,3.268,6.112,3.268c1.588,0,2.979-0.588,4.2-1.424l13.281,26.339
		C380.971,247.794,379.419,250.532,379.419,253.636z M288.107,196.071l-70.543-27.31c1.395-1.003,2.457-2.424,3.039-4.075
		l71.755-2.999c1.143,2.754,3.838,4.672,6.992,4.717v19.648C293.837,186.734,289.384,190.752,288.107,196.071z M443.945,120.564
		l-23.164,18.178c-3.763-5.047-9.769-8.325-16.545-8.325c-0.658,0-1.306,0.036-1.942,0.095l-2.689-32.799
		c1.966-1.238,3.555-2.976,4.652-5.034l38.114,20.537c-0.222,0.712-0.45,1.448-0.45,2.231
		C441.917,117.432,442.72,119.209,443.945,120.564z M493.471,145.888l-25.95,10.462c-0.395-3.862-3.554-6.917-7.528-6.917
		c-0.384,0-0.729,0.167-1.116,0.225l-5.927-27.392c1.261-0.624,2.273-1.614,3.019-2.807l35.592,17.081
		c-0.117,0.712-0.221,1.431-0.221,2.172C491.339,141.366,492.136,143.816,493.471,145.888z M456.923,150.1
		c-2.692,1.189-4.595,3.871-4.595,7.001c0,0.5,0.189,0.935,0.28,1.411l-28.142-3.247c0.28-1.356,0.428-2.757,0.428-4.195
		c0-3.905-1.107-7.541-2.997-10.66l23.68-18.577c1.187,0.745,2.51,1.291,4.01,1.291c0.506,0,0.946-0.187,1.428-0.288L456.923,150.1z
		 M412.319,231.982l-39.193-16.466c0.174-0.635,0.392-1.274,0.392-1.974c0-2.3-1.071-4.306-2.692-5.718l25.049-37.864
		c2.556,1.13,5.381,1.771,8.354,1.771c0.838,0,1.653-0.062,2.464-0.161l12.813,50.093
		C415.606,223.63,412.834,227.44,412.319,231.982z M392.576,99.762c1.806,0,3.525-0.365,5.086-1.022l2.634,32.057
		c-8.122,1.572-14.546,7.88-16.265,15.947l-68.235-21.458c0.977-2.16,1.535-4.542,1.535-7.064c0-0.496-0.035-0.99-0.074-1.473
		l64.808-22.236C384.49,97.685,388.273,99.762,392.576,99.762z M299.022,135.29l-0.375,15.937c-3.842,0.418-6.882,3.558-6.882,7.521
		c0,0.34,0.15,0.627,0.194,0.955l-70.923,2.96c0.026-0.262,0.08-0.51,0.08-0.778c0-0.898-0.177-1.744-0.434-2.561l66.106-30.483
		C289.694,132.512,294.064,134.949,299.022,135.29z M301.352,185.926v-19.9c2.059-0.545,3.739-1.849,4.736-3.672l47.155,6.737
		c0.067,1.052,0.332,2.022,0.77,2.911l-40.274,23.709C312.244,190.183,307.313,186.096,301.352,185.926z M353.445,167.099
		l-46.678-6.672c0.133-0.555,0.345-1.084,0.345-1.679c0-3.81-2.825-6.828-6.464-7.429l0.379-16.009
		c5.861-0.281,10.943-3.496,13.814-8.22l68.866,21.658c-0.085,0.765-0.138,1.536-0.138,2.323c0,2.686,0.53,5.244,1.464,7.596
		l-17.303,6.728c-1.225-2.614-3.835-4.447-6.915-4.447C357.115,160.946,354.167,163.612,353.445,167.099z M368.48,168.614
		c0-0.454-0.179-0.836-0.248-1.267l17.629-6.854c1.848,3.593,4.711,6.572,8.219,8.56l-24.908,37.655
		c-0.974-0.477-2.033-0.784-3.176-0.804l-3.415-29.981C365.945,175.103,368.48,172.221,368.48,168.614z M460.216,164.73
		c3.614-0.108,6.47-2.722,7.167-6.166l27.376-11.037c2.434,2.718,5.916,4.453,9.847,4.453c2.081,0,4.029-0.52,5.787-1.379
		l14.283,19.733c-2.535,2.986-4.063,6.842-4.063,11.056c0,1.686,0.254,3.313,0.712,4.852l-58.743,13.022
		c-0.883-2.378-2.895-4.093-5.391-4.698L460.216,164.73z M537.738,164.269c-4.52,0-8.605,1.757-11.672,4.619l-13.923-19.263
		c1.183-0.82,2.195-1.849,3.058-2.996l90.169,31.89c0.195,0.856,0.535,1.654,0.979,2.379l-51.534,1.582
		c0.023-0.359,0.057-0.719,0.057-1.085C554.864,171.94,547.199,164.269,537.738,164.269z M591.68,138.05
		c1.099,0,2.137-0.242,3.084-0.663l15.271,31.914c-2.737,1.192-4.679,3.875-4.836,7.027l-88.906-31.446
		c0.603-1.134,1.072-2.336,1.323-3.643l66.478-10.419C584.328,134.839,587.589,138.05,591.68,138.05z M524.61,90.922
		c2.006-0.102,3.803-0.917,5.11-2.278l56.269,36.701c-0.85,0.947-1.379,2.117-1.653,3.407l-66.521,10.426
		c0.014-0.157,0.056-0.301,0.056-0.458c0-4.636-2.385-8.703-5.986-11.076L524.61,90.922z M518.981,88.867
		c0.98,0.925,2.212,1.477,3.57,1.784l-12.447,36.027c-1.672-0.769-3.532-1.223-5.502-1.223c-5.867,0-10.794,3.836-12.536,9.116
		l-35.249-16.924c0.209-0.709,0.449-1.418,0.449-2.199c0-0.285-0.136-0.526-0.172-0.813L518.981,88.867z M435.274,42.967
		l81.572,38.912c-0.096,0.49-0.286,0.935-0.286,1.447c0,1.46,0.51,2.741,1.221,3.894l-61.097,25.399
		c-1.131-2.83-3.88-4.835-7.097-4.835c-0.095,0-0.17,0.056-0.266,0.062L432.224,45.76C433.511,45.136,434.513,44.15,435.274,42.967z
		 M428.946,46.554c0.474,0,0.892-0.184,1.336-0.268l17.071,61.945c-1.743,0.545-3.147,1.666-4.113,3.163l-38.181-20.561
		c0.475-1.363,0.792-2.806,0.792-4.333c0-2.313-0.647-4.457-1.69-6.344l22.311-34.089C427.264,46.329,428.066,46.554,428.946,46.554
		z M422.591,42.928c0.562,0.875,1.261,1.604,2.11,2.175l-21.738,33.234c-2.424-3.091-6.15-5.104-10.384-5.104
		c-5.771,0-10.622,3.695-12.451,8.834l-36.861-10.343c0-0.039,0.009-0.072,0.009-0.104c0-0.892-0.22-1.718-0.505-2.516
		L422.591,42.928z M331.421,77.873c1.22,0.82,2.606,1.411,4.182,1.411c3.492,0,6.33-2.388,7.26-5.587l36.701,10.292
		c-0.157,0.813-0.248,1.644-0.248,2.509c0,2.281,0.627,4.394,1.641,6.272l-63.983,21.949c-0.705-3.392-2.415-6.404-4.799-8.736
		L331.421,77.873z M253.408,93.539c0-0.187-0.093-0.344-0.113-0.533l74.994-19.628c0.287,1.209,0.795,2.296,1.585,3.208
		l-19.224,28.088c-2.895-2.229-6.507-3.574-10.447-3.574c-7.324,0-13.56,4.61-16.01,11.085l-31.351-15.885
		C253.184,95.434,253.408,94.516,253.408,93.539z M243.338,100.727c0.767,0.254,1.542,0.482,2.393,0.482
		c2.533,0,4.678-1.316,6.077-3.205l31.783,16.11c-0.327,1.32-0.513,2.689-0.513,4.107c0,3.283,0.94,6.342,2.543,8.946
		l-65.768,30.325c-1.168-1.921-3.062-3.332-5.31-3.852L243.338,100.727z M234.505,214.528c-1.328,0-2.522,0.425-3.611,1.026
		l-19.565-45.327c0.428,0.068,0.862,0.131,1.308,0.131c0.862,0,1.68-0.164,2.462-0.405l72.714,28.15
		c-0.03,0.353-0.106,0.692-0.106,1.059c0,1.991,0.475,3.873,1.269,5.565l-47.059,16.159
		C241.27,217.299,238.284,214.528,234.505,214.528z M295.8,243.07c-2.632,0.17-4.823,1.66-6.074,3.823l-49.05-20.361
		c0.722-1.046,1.21-2.228,1.345-3.555l47.925-16.453c1.844,2.744,4.693,4.75,8.017,5.521L295.8,243.07z M297.793,243.279
		l2.166-30.966c0.337,0.026,0.666,0.104,1.018,0.104c7.326,0,13.267-5.933,13.267-13.256c0-0.467-0.09-0.905-0.132-1.346
		l41.016-24.151c1.366,1.529,3.285,2.516,5.476,2.578l3.409,30.014c-3.324,0.836-5.833,3.705-5.833,7.292
		c0,0.954,0.231,1.836,0.539,2.672l-56.312,30.071C301.307,244.743,299.711,243.685,297.793,243.279z M336.03,326.571l-5.731-25.092
		c3.051-1.013,5.303-3.79,5.303-7.193c0-2.242-0.994-4.208-2.526-5.62l14.415-9.971c0.878,0.862,1.968,1.476,3.172,1.823
		L336.03,326.571z M359.9,270.763c-1.04-2.94-3.819-5.064-7.12-5.064c-4.186,0-7.58,3.391-7.58,7.573
		c0,1.209,0.307,2.333,0.806,3.346c-0.08,0.189-0.113,0.353-0.022,0.451l-14.924,10.246c-0.964-0.438-2.002-0.7-3.119-0.7
		c-1.044,0-2.027,0.216-2.934,0.588l-23.384-31.083c1.146-1.11,1.817-2.633,2.083-4.286l76.412,5.313
		c0.641,1.555,1.706,2.869,3.033,3.855L359.9,270.763z M486.712,232.119c0,0.771,0.226,1.47,0.437,2.156l-48.75,1.974
		c0.196-0.901,0.296-1.816,0.296-2.764c0-3.124-1.119-5.947-2.916-8.214l15.42-17.159c1.235,0.837,2.634,1.444,4.234,1.444
		c2.189,0,4.149-0.935,5.533-2.412l27.687,20.021C487.486,228.505,486.712,230.205,486.712,232.119z M494.382,224.454
		c-1.567,0-2.925,0.576-4.142,1.373l-28.138-20.368c0.582-1.078,0.995-2.254,0.995-3.575c0-0.222-0.1-0.424-0.127-0.633
		l59.025-13.097c0.994,2.288,2.471,4.313,4.294,5.95l-26.641,32.5C498.271,225.278,496.433,224.454,494.382,224.454z
		 M543.469,227.107c0,1.941,0.79,3.646,1.961,4.986l-15.944,8.383c-0.555-3.686-3.6-6.568-7.453-6.568
		c-3.976,0-7.124,3.059-7.514,6.927l-13.719-4.764c0.719-1.163,1.249-2.476,1.249-3.953c0-1.431-0.498-2.692-1.185-3.843
		l26.976-32.921c2.795,1.99,6.202,3.163,9.892,3.163c1.137,0,2.24-0.111,3.313-0.327l9.572,21.355
		C546.645,219.821,543.469,223.056,543.469,227.107z M558.512,225.637c-0.582-2.901-2.716-5.136-5.581-5.842l-9.926-22.11
		c2.234-0.718,4.261-1.884,5.985-3.404l31.602,21.568c-0.358,1.046-0.603,2.143-0.603,3.306c0,1.242,0.257,2.412,0.661,3.515
		L558.512,225.637z M609.551,184.113l-12.003,28.259c-1.856-2.025-4.489-3.326-7.449-3.326c-3.686,0-6.88,1.999-8.645,4.953
		l-31.007-21.15c2.085-2.313,3.545-5.185,4.12-8.364l53.435-1.633c0.406,0.346,0.844,0.653,1.314,0.912
		C609.401,183.878,609.46,184.002,609.551,184.113z"/>
</g>
</svg>
